<mxfile host="app.diagrams.net" agent="Mozilla/5.0 (Windows NT 10.0; Win64; x64) AppleWebKit/537.36 (KHTML, like Gecko) Chrome/131.0.0.0 Safari/537.36" version="25.0.3">
  <diagram name="Page-1" id="929967ad-93f9-6ef4-fab6-5d389245f69c">
    <mxGraphModel dx="1050" dy="557" grid="1" gridSize="10" guides="1" tooltips="1" connect="1" arrows="1" fold="1" page="1" pageScale="1.5" pageWidth="1169" pageHeight="826" background="none" math="0" shadow="0">
      <root>
        <mxCell id="0" style=";html=1;" />
        <mxCell id="1" style=";html=1;" parent="0" />
        <mxCell id="pPTR574hBDZLhEBa0Hd8-18" value="Register" style="shape=umlFrame;whiteSpace=wrap;html=1;pointerEvents=0;" parent="1" vertex="1">
          <mxGeometry x="80" y="80" width="520" height="280" as="geometry" />
        </mxCell>
        <mxCell id="pPTR574hBDZLhEBa0Hd8-19" value="USER" style="shape=umlLifeline;perimeter=lifelinePerimeter;whiteSpace=wrap;html=1;container=1;dropTarget=0;collapsible=0;recursiveResize=0;outlineConnect=0;portConstraint=eastwest;newEdgeStyle={&quot;curved&quot;:0,&quot;rounded&quot;:0};" parent="1" vertex="1">
          <mxGeometry x="140" y="38" width="100" height="322" as="geometry" />
        </mxCell>
        <mxCell id="pPTR574hBDZLhEBa0Hd8-20" value="System" style="shape=umlLifeline;perimeter=lifelinePerimeter;whiteSpace=wrap;html=1;container=1;dropTarget=0;collapsible=0;recursiveResize=0;outlineConnect=0;portConstraint=eastwest;newEdgeStyle={&quot;curved&quot;:0,&quot;rounded&quot;:0};" parent="1" vertex="1">
          <mxGeometry x="320" y="38" width="100" height="312" as="geometry" />
        </mxCell>
        <mxCell id="pPTR574hBDZLhEBa0Hd8-24" value="Database" style="shape=umlLifeline;perimeter=lifelinePerimeter;whiteSpace=wrap;html=1;container=1;dropTarget=0;collapsible=0;recursiveResize=0;outlineConnect=0;portConstraint=eastwest;newEdgeStyle={&quot;curved&quot;:0,&quot;rounded&quot;:0};" parent="1" vertex="1">
          <mxGeometry x="500" y="38" width="100" height="312" as="geometry" />
        </mxCell>
        <mxCell id="pPTR574hBDZLhEBa0Hd8-26" value="Request" style="html=1;verticalAlign=bottom;startArrow=oval;startFill=1;endArrow=block;startSize=8;curved=0;rounded=0;" parent="1" edge="1">
          <mxGeometry width="60" relative="1" as="geometry">
            <mxPoint x="189.91176470588232" y="109.99999999999989" as="sourcePoint" />
            <mxPoint x="369.5" y="109.99999999999989" as="targetPoint" />
          </mxGeometry>
        </mxCell>
        <mxCell id="pPTR574hBDZLhEBa0Hd8-29" value="Validation of&amp;nbsp;&lt;div&gt;Patient/Doctor&lt;/div&gt;" style="text;html=1;align=center;verticalAlign=middle;resizable=0;points=[];autosize=1;strokeColor=none;fillColor=none;" parent="1" vertex="1">
          <mxGeometry x="370" y="120" width="100" height="40" as="geometry" />
        </mxCell>
        <mxCell id="pPTR574hBDZLhEBa0Hd8-31" value="" style="endArrow=block;startArrow=block;endFill=1;startFill=1;html=1;rounded=0;" parent="1" target="pPTR574hBDZLhEBa0Hd8-24" edge="1">
          <mxGeometry width="160" relative="1" as="geometry">
            <mxPoint x="370" y="180" as="sourcePoint" />
            <mxPoint x="530" y="180" as="targetPoint" />
          </mxGeometry>
        </mxCell>
        <mxCell id="pPTR574hBDZLhEBa0Hd8-32" value="Query" style="text;html=1;align=center;verticalAlign=middle;resizable=0;points=[];autosize=1;strokeColor=none;fillColor=none;" parent="1" vertex="1">
          <mxGeometry x="430" y="178" width="60" height="30" as="geometry" />
        </mxCell>
        <mxCell id="pPTR574hBDZLhEBa0Hd8-34" value="Response" style="endArrow=open;endSize=12;dashed=1;html=1;rounded=0;" parent="1" source="pPTR574hBDZLhEBa0Hd8-20" edge="1">
          <mxGeometry width="160" relative="1" as="geometry">
            <mxPoint x="390" y="219.58" as="sourcePoint" />
            <mxPoint x="550" y="219.58" as="targetPoint" />
          </mxGeometry>
        </mxCell>
        <mxCell id="pPTR574hBDZLhEBa0Hd8-35" value="" style="endArrow=none;html=1;edgeStyle=orthogonalEdgeStyle;rounded=0;" parent="1" source="pPTR574hBDZLhEBa0Hd8-19" edge="1">
          <mxGeometry relative="1" as="geometry">
            <mxPoint x="390" y="280" as="sourcePoint" />
            <mxPoint x="550" y="280" as="targetPoint" />
            <Array as="points">
              <mxPoint x="280" y="280" />
              <mxPoint x="280" y="280" />
            </Array>
          </mxGeometry>
        </mxCell>
        <mxCell id="pPTR574hBDZLhEBa0Hd8-38" value="Create an appointement" style="text;html=1;align=center;verticalAlign=middle;resizable=0;points=[];autosize=1;strokeColor=none;fillColor=none;" parent="1" vertex="1">
          <mxGeometry x="220" y="250" width="150" height="30" as="geometry" />
        </mxCell>
        <mxCell id="pPTR574hBDZLhEBa0Hd8-39" value="Confirmation" style="html=1;verticalAlign=bottom;endArrow=open;dashed=1;endSize=8;curved=0;rounded=0;" parent="1" target="pPTR574hBDZLhEBa0Hd8-19" edge="1">
          <mxGeometry x="0.4992" relative="1" as="geometry">
            <mxPoint x="550" y="320" as="sourcePoint" />
            <mxPoint x="470" y="320" as="targetPoint" />
            <mxPoint as="offset" />
          </mxGeometry>
        </mxCell>
      </root>
    </mxGraphModel>
  </diagram>
</mxfile>
